<?xml version="1.0" encoding="UTF-8"?>
<!-- Created with Inkscape (http://www.inkscape.org/) -->
<svg width="264" height="48" version="1.1" viewBox="0 0 264 48" xmlns="http://www.w3.org/2000/svg" xmlns:cc="http://creativecommons.org/ns#" xmlns:dc="http://purl.org/dc/elements/1.1/" xmlns:rdf="http://www.w3.org/1999/02/22-rdf-syntax-ns#">
 <metadata>
  <rdf:RDF>
   <cc:Work rdf:about="">
    <dc:format>image/svg+xml</dc:format>
    <dc:type rdf:resource="http://purl.org/dc/dcmitype/StillImage"/>
   </cc:Work>
  </rdf:RDF>
 </metadata>
 <g transform="translate(0 -1005.9)">
  <path d="m252 1031.9c-3.0794 0-4.5528 2.4964-4.5516 5.5757 9.1e-4 2.8539 2.8085 4.4243 2.6519 5.2348l-0.0871 0.4509c-0.16026 0.8296-5.6496 3.2538-5.6496 4.678 0 2.6442 2.3478 4.0606 7.6363 4.0606s7.6364-1.4164 7.6364-4.0606c-6.1e-4 -1.4242-5.4757-3.8484-5.6458-4.6818l-0.0909-0.4451c-0.16586-0.8125 2.6507-2.3829 2.6519-5.2368 1e-3 -3.0793-1.4721-5.5757-4.5516-5.5757z" fill="#fff"/>
  <path d="m252 1007.9c-3.0794 0-4.5528 2.4964-4.5516 5.5757 9.1e-4 2.8539 2.8085 4.4243 2.6519 5.2348l-0.0871 0.4509c-0.16026 0.8296-5.6496 3.2538-5.6496 4.678 0 2.6442 2.3478 4.0606 7.6363 4.0606s7.6364-1.4164 7.6364-4.0606c-6.1e-4 -1.4242-5.4757-3.8484-5.6458-4.6818l-0.0909-0.4451c-0.16586-0.8125 2.6507-2.3829 2.6519-5.2368 1e-3 -3.0793-1.4721-5.5757-4.5516-5.5757z" fill="#d6d6d6"/>
  <path d="m218.16 1041.3c-0.21218 0.3096-0.21212 0.7178 0 1.0275 0.17721 0.2588 4.403 6.3361 9.841 6.3362 0.88891 0 1.7452-0.163 2.5569-0.4359l-9.839-9.8391c-1.5306 1.4303-2.477 2.7917-2.5589 2.9113zm19.575 8.9618-3.8472-3.8472c2.3376-1.7597 3.8498-3.9345 3.9543-4.087 0.21224-0.3097 0.21224-0.718 0-1.0277-0.17727-0.2587-4.4035-6.336-9.8406-6.336-1.568 1e-4 -3.0349 0.5058-4.3332 1.2312l-4.1151-4.115c-0.35497-0.355-0.93054-0.3551-1.2856 0s-0.35503 0.9306 0 1.2856l18.182 18.182c0.17757 0.1775 0.41018 0.2663 0.64278 0.2663 0.23267 1e-4 0.46534-0.089 0.64279-0.2663 0.35515-0.355 0.35509-0.9305 6e-5 -1.2856z" fill="#fff" stroke-width=".060606"/>
  <path id="XMLID_5_" d="m218.16 1017.3c-0.21218 0.3096-0.21212 0.7178 0 1.0275 0.17721 0.2588 4.403 6.3361 9.841 6.3362 0.88891 0 1.7452-0.163 2.5569-0.4359l-9.839-9.8391c-1.5306 1.4303-2.477 2.7917-2.5589 2.9113zm19.575 8.9618-3.8472-3.8472c2.3376-1.7597 3.8498-3.9345 3.9543-4.087 0.21224-0.3097 0.21224-0.718 0-1.0277-0.17727-0.2587-4.4035-6.336-9.8406-6.336-1.568 1e-4 -3.0349 0.5058-4.3332 1.2312l-4.1151-4.115c-0.35497-0.355-0.93054-0.3551-1.2856 0s-0.35503 0.9306 0 1.2856l18.182 18.182c0.17757 0.1775 0.41018 0.2663 0.64278 0.2663 0.23267 1e-4 0.46534-0.089 0.64279-0.2663 0.35515-0.355 0.35509-0.9305 6e-5 -1.2856z" fill="#d6d6d6" stroke-width=".060606"/>
  <path d="m207.94 1037.9c-0.24296-0.2429-0.55776-0.3619-0.87508-0.3619-0.31728 0-0.63461 0.1213-0.87504 0.3619l-0.55035 0.5478-1.8889 1.889-3.1507 3.1506-0.54784 0.548c-0.48339 0.4833-0.48339 1.2691 0 1.7525 0.24293 0.243 0.55776 0.362 0.87506 0.362s0.6346-0.1213 0.87506-0.362l0.54784-0.5478 1.8195-1.8196 1.3312-1.3311 1.889-1.889 0.54784-0.5478c0.48587-0.4835 0.48587-1.2692 2e-3 -1.7526zm4.3505-4.4125c-1.0585-1.0586-2.4665-1.6411-3.9638-1.6411-1.4973 0-2.9053 0.5825-3.9638 1.6411l-3.3639 3.3663c-0.2008 0.2008-0.2008 0.5281 0 0.7314l2.0625 2.0625 1.889-1.889-0.57513-0.5752 1.8443-1.8442c1.1651-1.1652 3.0541-1.1652 4.2192 0l0.062 0.063c1.1651 1.165 1.1651 3.054 0 4.2192l-1.8443 1.8442-0.57263-0.5726-1.889 1.8889 2.0625 2.0625c0.20079 0.2008 0.52798 0.2008 0.73128 0l3.3664-3.3664c1.0585-1.0585 1.6411-2.4666 1.6411-3.9637 0-1.4973-0.58254-2.9054-1.6411-3.9639zm-16.589 16.713c1.0585 1.0585 2.4665 1.641 3.9638 1.641 1.4973 0 2.9053-0.5825 3.9638-1.641l3.297-3.2969c0.2008-0.2008 0.2008-0.528 0-0.7313l-2.0625-2.0625-1.8195 1.8195 0.57266 0.5727-1.8444 1.8443c-1.1651 1.1651-3.054 1.1651-4.2191 0l-0.062-0.063c-1.1651-1.165-1.1651-3.054 0-4.219l1.8443-1.8443 0.57263 0.5726 1.8195-1.8195-2.0625-2.0624c-0.20079-0.2008-0.52801-0.2008-0.73128 0l-3.297 3.2969c-1.0585 1.0584-1.641 2.4665-1.641 3.9638 0 1.4972 0.58255 2.9052 1.641 3.9637z" fill="#fff" stroke-width=".024789"/>
  <path d="m207.94 1013.9c-0.24296-0.2429-0.55776-0.3619-0.87508-0.3619-0.31728 0-0.63461 0.1213-0.87504 0.3619l-0.55035 0.5478-1.8889 1.889-3.1507 3.1506-0.54784 0.548c-0.48339 0.4833-0.48339 1.2691 0 1.7525 0.24293 0.243 0.55776 0.362 0.87506 0.362s0.6346-0.1213 0.87506-0.362l0.54784-0.5478 1.8195-1.8196 1.3312-1.3311 1.889-1.889 0.54784-0.5478c0.48587-0.4835 0.48587-1.2692 2e-3 -1.7526zm4.3505-4.4125c-1.0585-1.0586-2.4665-1.6411-3.9638-1.6411-1.4973 0-2.9053 0.5825-3.9638 1.6411l-3.3639 3.3663c-0.2008 0.2008-0.2008 0.5281 0 0.7314l2.0625 2.0625 1.889-1.889-0.57513-0.5752 1.8443-1.8442c1.1651-1.1652 3.0541-1.1652 4.2192 0l0.062 0.063c1.1651 1.165 1.1651 3.054 0 4.2192l-1.8443 1.8442-0.57263-0.5726-1.889 1.8889 2.0625 2.0625c0.20079 0.2008 0.52798 0.2008 0.73128 0l3.3664-3.3664c1.0585-1.0585 1.6411-2.4666 1.6411-3.9637 0-1.4973-0.58254-2.9054-1.6411-3.9639zm-16.589 16.713c1.0585 1.0585 2.4665 1.641 3.9638 1.641 1.4973 0 2.9053-0.5825 3.9638-1.641l3.297-3.2969c0.2008-0.2008 0.2008-0.528 0-0.7313l-2.0625-2.0625-1.8195 1.8195 0.57266 0.5727-1.8444 1.8443c-1.1651 1.1651-3.054 1.1651-4.2191 0l-0.062-0.063c-1.1651-1.165-1.1651-3.054 0-4.219l1.8443-1.8443 0.57263 0.5726 1.8195-1.8195-2.0625-2.0624c-0.20079-0.2008-0.52801-0.2008-0.73128 0l-3.297 3.2969c-1.0585 1.0584-1.641 2.4665-1.641 3.9638 0 1.4972 0.58255 2.9052 1.641 3.9637z" fill="#d6d6d6" stroke-width=".024789"/>
  <g stroke-width=".10018">
   <path d="m187.42 1043.9c-0.16993-0.4217-0.57974-0.6928-1.0295-0.6928h-2.199v-10.231c0-0.6125-0.48978-1.1145-1.1095-1.1145h-6.1173c-0.60973 0-1.1095 0.492-1.1095 1.1145v10.231h-2.239c-0.4498 0-0.84963 0.2711-1.0295 0.6928-0.16993 0.4216-0.08 0.8935 0.23989 1.2148l6.3871 6.4157c0.21991 0.2209 0.49978 0.3313 0.78965 0.3313 0.27988 0 0.56975-0.1104 0.78965-0.3313l6.3871-6.4157c0.30987-0.3213 0.40982-0.8032 0.2399-1.2148z" fill="#fff"/>
   <path d="m187.42 1019.9c-0.16993-0.4217-0.57974-0.6928-1.0295-0.6928h-2.199v-10.231c0-0.6125-0.48978-1.1145-1.1095-1.1145h-6.1173c-0.60973 0-1.1095 0.492-1.1095 1.1145v10.231h-2.239c-0.4498 0-0.84963 0.2711-1.0295 0.6928-0.16993 0.4216-0.08 0.8935 0.23989 1.2148l6.3871 6.4157c0.21991 0.2209 0.49978 0.3313 0.78965 0.3313 0.27988 0 0.56975-0.1104 0.78965-0.3313l6.3871-6.4157c0.30987-0.3213 0.40982-0.8032 0.2399-1.2148z" fill="#d6d6d6"/>
   <path d="m163.42 1039.8c-0.16993 0.4217-0.57974 0.6928-1.0295 0.6928h-2.199v10.231c0 0.6125-0.48978 1.1145-1.1095 1.1145h-6.1173c-0.60973 0-1.1095-0.492-1.1095-1.1145v-10.231h-2.239c-0.4498 0-0.84963-0.2711-1.0295-0.6928-0.16993-0.4216-0.08-0.8935 0.23989-1.2148l6.3871-6.4157c0.21991-0.2209 0.49978-0.3313 0.78965-0.3313 0.27988 0 0.56975 0.1104 0.78965 0.3313l6.3871 6.4157c0.30987 0.3213 0.40982 0.8032 0.2399 1.2148z" fill="#fff"/>
   <path d="m163.42 1015.8c-0.16993 0.4217-0.57974 0.6928-1.0295 0.6928h-2.199v10.231c0 0.6125-0.48978 1.1145-1.1095 1.1145h-6.1173c-0.60973 0-1.1095-0.492-1.1095-1.1145v-10.231h-2.239c-0.4498 0-0.84963-0.2711-1.0295-0.6928-0.16993-0.4216-0.08-0.8935 0.23989-1.2148l6.3871-6.4157c0.21991-0.2209 0.49978-0.3313 0.78965-0.3313 0.27988 0 0.56975 0.1104 0.78965 0.3313l6.3871 6.4157c0.30987 0.3213 0.40982 0.8032 0.2399 1.2148z" fill="#d6d6d6"/>
  </g>
  <path d="m137.05 1033.6q0.99798 0 1.8881 0.3507 0.90357 0.3507 1.5779 1.0251 0.6878 0.6743 1.0789 1.6722 0.40459 0.9981 0.40459 2.3061 0 1.4969-0.49899 2.6433-0.49899 1.1329-1.3216 2.0498-0.80918 0.9038-1.8746 1.659-1.0519 0.7552-2.1578 1.4835-1.1059 0.728-2.1848 1.5104-1.0654 0.7688-1.9285 1.7262h-0.0539q-0.86311-0.9574-1.942-1.7262-1.0654-0.7824-2.1848-1.5104-1.1059-0.7283-2.1578-1.4835t-1.8746-1.659q-0.82266-0.9171-1.3216-2.0498-0.49903-1.1464-0.49903-2.6433 0-1.308 0.3911-2.3061 0.40459-0.9979 1.0789-1.6722 0.68779-0.6744 1.5779-1.0251 0.90357-0.3507 1.9016-0.3507 0.98449 0 1.7532 0.2294 0.76872 0.2291 1.3621 0.6202 0.60688 0.3777 1.0654 0.8769 0.47201 0.4989 0.84963 1.0382h0.0539q0.36412-0.5393 0.82266-1.0382 0.47201-0.4992 1.0654-0.8769 0.60688-0.3911 1.3756-0.6202 0.76871-0.2294 1.7532-0.2294z" fill="#fff"/>
  <path d="m137.05 1009.6q0.99798 0 1.8881 0.3507 0.90357 0.3507 1.5779 1.0251 0.6878 0.6743 1.0789 1.6722 0.40459 0.9981 0.40459 2.3061 0 1.4969-0.49899 2.6433-0.49899 1.1329-1.3216 2.0498-0.80918 0.9038-1.8746 1.659-1.0519 0.7552-2.1578 1.4835-1.1059 0.728-2.1848 1.5104-1.0654 0.7688-1.9285 1.7262h-0.0539q-0.86311-0.9574-1.942-1.7262-1.0654-0.7824-2.1848-1.5104-1.1059-0.7283-2.1578-1.4835t-1.8746-1.659q-0.82266-0.9171-1.3216-2.0498-0.49903-1.1465-0.49903-2.6433 0-1.308 0.3911-2.3061 0.40459-0.9979 1.0789-1.6722 0.68779-0.6744 1.5779-1.0251 0.90357-0.3507 1.9016-0.3507 0.98449 0 1.7532 0.2294 0.76872 0.2291 1.3621 0.6202 0.60688 0.3777 1.0654 0.8769 0.47201 0.4989 0.84963 1.0382h0.0539q0.36412-0.5393 0.82266-1.0382 0.47201-0.4992 1.0654-0.8769 0.60688-0.3911 1.3756-0.6202 0.76871-0.2294 1.7532-0.2294z" fill="#d6d6d6"/>
  <path d="m116.17 1040h-6.3545v-6.3492c0-1.0051-0.81088-1.8199-1.8159-1.8199-1.005 0-1.8154 0.8148-1.8154 1.8203v6.3532h-6.3576c-1.005 0-1.8221 0.8149-1.8216 1.8203-4.41e-4 0.5023 0.2025 0.9628 0.53134 1.2916 0.32928 0.3297 0.78359 0.538 1.2854 0.538h6.3625v6.3444c0 0.5027 0.19941 0.9579 0.5287 1.2863 0.32928 0.3293 0.78226 0.5331 1.285 0.5331 1.0046 0 1.8177-0.8149 1.8177-1.8194v-6.3449h6.3545c1.005 0 1.8199-0.8219 1.8194-1.8269-4.4e-4 -1.0046-0.81528-1.8269-1.8194-1.8269z" fill="#fff" stroke-width=".44022"/>
  <path d="m116.17 1016h-6.3545v-6.3492c0-1.0051-0.81088-1.8199-1.8159-1.8199-1.005 0-1.8154 0.8148-1.8154 1.8203v6.3532h-6.3576c-1.005 0-1.8221 0.8149-1.8216 1.8203-4.41e-4 0.5023 0.2025 0.9628 0.53134 1.2916 0.32928 0.3297 0.78359 0.538 1.2854 0.538h6.3625v6.3444c0 0.5027 0.19941 0.9579 0.5287 1.2863 0.32928 0.3293 0.78226 0.5331 1.285 0.5331 1.0046 0 1.8177-0.8149 1.8177-1.8194v-6.3449h6.3545c1.005 0 1.8199-0.8219 1.8194-1.8269-4.4e-4 -1.0046-0.81528-1.8269-1.8194-1.8269z" fill="#d6d6d6" stroke-width=".44022"/>
  <path d="m82.456 1031.9c-1.262 0-2.3017 1.0396-2.3017 2.3016v0.7753h-4.6154v1.5384h1.5385v13.077c0 1.274 1.0337 2.3077 2.3077 2.3077h9.2308c1.274 0 2.3077-1.0337 2.3077-2.3077v-13.077h1.5385v-1.5384h-4.6154v-0.7753c0-1.262-1.0397-2.3016-2.3017-2.3016zm0 1.5384h3.0889c0.43269 0 0.76322 0.3306 0.76322 0.7632v0.7753h-4.6154v-0.7753c0-0.4326 0.33053-0.7632 0.76322-0.7632zm-2.3017 4.6154h1.5385v10.769h-1.5385zm3.0769 0h1.5385v10.769h-1.5385zm3.0769 0h1.5385v10.769h-1.5385z" fill="#fff" stroke-width="1.5385"/>
  <path d="m82.456 1007.9c-1.262 0-2.3017 1.0396-2.3017 2.3016v0.7753h-4.6154v1.5384h1.5385v13.077c0 1.274 1.0337 2.3077 2.3077 2.3077h9.2308c1.274 0 2.3077-1.0337 2.3077-2.3077v-13.077h1.5385v-1.5384h-4.6154v-0.7753c0-1.262-1.0397-2.3016-2.3017-2.3016zm0 1.5384h3.0889c0.43269 0 0.76322 0.3306 0.76322 0.7632v0.7753h-4.6154v-0.7753c0-0.4326 0.33053-0.7632 0.76322-0.7632zm-2.3017 4.6154h1.5385v10.769h-1.5385zm3.0769 0h1.5385v10.769h-1.5385zm3.0769 0h1.5385v10.769h-1.5385z" fill="#d6d6d6" stroke-width="1.5385"/>
  <path d="m67.071 1034.8c-3.9057-3.9052-10.237-3.9052-14.142 0-3.9057 3.9053-3.9052 10.237 0 14.142 3.9052 3.9053 10.237 3.9053 14.142-4e-4 3.9052-3.9052 3.9057-10.237 4.35e-4 -14.142zm-2.9879 8.6948c0.6793 0.6793 0.6793 1.7807 0 2.4591-0.67974 0.6793-1.7807 0.6793-2.4596 0l-1.631-1.6314-1.6275 1.6275c-0.6793 0.6797-1.7729 0.6867-2.4522 0.01-0.67887-0.6793-0.67104-1.7725 0.0083-2.4522l1.6275-1.6276-1.6306-1.6301c-0.6793-0.6793-0.68191-1.7833-0.0026-2.4622 0.6793-0.6789 1.7825-0.6771 2.4613 0l1.6315 1.6314 1.6275-1.6275c0.6793-0.6793 1.7725-0.6867 2.4518-0.01 0.6793 0.6793 0.67147 1.7729-0.0083 2.4522l-1.6271 1.6275z" fill="#ff7f2a" stroke-width=".43517"/>
  <path d="m60 1007.9c-5.5226 0-10 4.4774-10 10 0 5.523 4.4774 10 10 10s10-4.477 10-10c0-5.5226-4.4774-10-10-10zm4.3301 5.4629c0.36158 0 0.72196 0.138 0.99805 0.4141 0.55217 0.5522 0.55217 1.4458 0 1.998l-6.2461 6.248c-0.26478 0.2644-0.62565 0.4122-1 0.4122s-0.73326-0.1478-0.99805-0.4122l-3.0977-3.0976c-0.55174-0.5518-0.55174-1.4464 0-1.9981 0.55217-0.5522 1.4459-0.5522 1.998 0l1.8457 1.8438c0.13956 0.1392 0.36434 0.1392 0.50391 0l4.9961-4.9941c0.2763-0.2761 0.63842-0.4141 1-0.4141z" fill="#0de" stroke-width=".43478"/>
  <path d="m26.871 1044.8c-0.14021 0.1402-0.22813 0.323-0.24993 0.5198l-0.61566 5.5417c-0.02874 0.263 0.0627 0.5242 0.24993 0.7114 0.16372 0.1646 0.38577 0.2552 0.61566 0.2552 0.03221 0 0.06355 0 0.0958-0.01l5.5426-0.6156c0.19593-0.022 0.37965-0.1097 0.519-0.25l8.6642-8.6642-6.1573-6.1573zm17.856-5.5414c1.6972-1.6981 1.6972-4.4602 0-6.1573-1.698-1.6981-4.461-1.6972-6.1573 0l-1.8034 1.8033 6.1573 6.1573z" fill="#fff" stroke-width=".040818"/>
  <path d="m26.871 1020.8c-0.14021 0.1402-0.22813 0.3231-0.24993 0.5199l-0.61566 5.5416c-0.02874 0.263 0.0627 0.5243 0.24993 0.7115 0.16372 0.1645 0.38577 0.2551 0.61566 0.2551 0.03221 0 0.06355 0 0.0958-0.01l5.5426-0.6157c0.19593-0.022 0.37965-0.1097 0.519-0.2499l8.6642-8.6643-6.1573-6.1573zm17.856-5.5414c1.6972-1.698 1.6972-4.4601 0-6.1573-1.698-1.698-4.461-1.6972-6.1573 0l-1.8034 1.8034 6.1573 6.1573z" fill="#d6d6d6" stroke-width=".040818"/>
  <path d="m20.69 1049.7h-17.38c-0.72349 0-1.31-0.5866-1.31-1.3101v-11.004c0-0.7235 0.58655-1.3101 1.31-1.3101h5.7686l1.9189-2.2813c0.24891-0.296 0.61585-0.4668 1.0026-0.4668s0.75367 0.1708 1.0026 0.4667l1.9189 2.2814h5.7685c0.72354 0 1.31 0.5865 1.31 1.31v11.004c0 0.7236-0.58651 1.3101-1.31 1.3101zm-14.961-3.7322h5.9825c0.36175 0 0.65502-0.2932 0.65502-0.655 0-0.3617-0.29328-0.655-0.65502-0.655h-5.9825c-0.36175 0-0.65502 0.2933-0.65502 0.655 0 0.3618 0.29328 0.655 0.65502 0.655zm12.515-5.3275h-12.489c-0.36175 0-0.65502 0.2933-0.65502 0.6551 0 0.3617 0.29328 0.655 0.65502 0.655h12.489c0.36175 0 0.65502-0.2933 0.65502-0.655 0-0.3618-0.29328-0.6551-0.65502-0.6551z" fill="#fff" stroke-width=".043668"/>
  <path d="m20.69 1025.6h-17.38c-0.72349 0-1.31-0.5866-1.31-1.3101v-11.004c0-0.7235 0.58655-1.3101 1.31-1.3101h5.7686l1.9189-2.2813c0.24891-0.296 0.61585-0.4668 1.0026-0.4668s0.75367 0.1708 1.0026 0.4667l1.9189 2.2814h5.7685c0.72354 0 1.31 0.5865 1.31 1.31v11.004c0 0.7236-0.58651 1.3101-1.31 1.3101zm-14.961-3.7322h5.9825c0.36175 0 0.65502-0.2932 0.65502-0.655 0-0.3617-0.29328-0.655-0.65502-0.655h-5.9825c-0.36175 0-0.65502 0.2933-0.65502 0.655 0 0.3618 0.29328 0.655 0.65502 0.655zm12.515-5.3275h-12.489c-0.36175 0-0.65502 0.2933-0.65502 0.6551 0 0.3617 0.29328 0.655 0.65502 0.655h12.489c0.36175 0 0.65502-0.2933 0.65502-0.655 0-0.3618-0.29328-0.6551-0.65502-0.6551z" fill="#d6d6d6" stroke-width=".043668"/>
 </g>
</svg>
