<?xml version="1.0" encoding="UTF-8"?>
<!-- Created with Inkscape (http://www.inkscape.org/) -->
<svg width="76" height="152" version="1.1" viewBox="0 0 76 152" xmlns="http://www.w3.org/2000/svg" xmlns:cc="http://creativecommons.org/ns#" xmlns:dc="http://purl.org/dc/elements/1.1/" xmlns:rdf="http://www.w3.org/1999/02/22-rdf-syntax-ns#">
 <metadata>
  <rdf:RDF>
   <cc:Work rdf:about="">
    <dc:format>image/svg+xml</dc:format>
    <dc:type rdf:resource="http://purl.org/dc/dcmitype/StillImage"/>
   </cc:Work>
  </rdf:RDF>
 </metadata>
 <g transform="translate(0 -902.03)">
  <g transform="matrix(1.0129 0 0 1.0129 -.66217 25.066)" fill="#fff">
   <rect x="40.144" y="980.32" width="33.567" height="33.567" rx="5.9236" ry="5.9236" fill-opacity=".8"/>
   <path d="m65.982 999.59c-0.20741-0.51465-0.70764-0.84559-1.2567-0.84559h-2.6842v-12.488c0-0.74763-0.59784-1.3604-1.3543-1.3604h-7.4669c-0.74424 0-1.3543 0.60054-1.3543 1.3604v12.488h-2.733c-0.54903 0-1.0371 0.33094-1.2567 0.84559-0.20741 0.5148-0.0976 1.0908 0.29282 1.4829l7.7963 7.831c0.26842 0.2696 0.61004 0.4045 0.96386 0.4045 0.34162 0 0.69544-0.1343 0.96386-0.4045l7.7963-7.831c0.37822-0.3921 0.50023-0.9805 0.29282-1.4829z" stroke-width=".12228"/>
  </g>
  <g transform="matrix(1.0129 0 0 1.0129 -.025799 25.066)">
   <rect x="2" y="980.32" width="33.567" height="33.567" rx="5.9236" ry="5.9236" fill="#d6d6d6"/>
   <path d="m27.838 999.59c-0.20741-0.51465-0.70764-0.84559-1.2567-0.84559h-2.6842v-12.488c0-0.74763-0.59784-1.3604-1.3543-1.3604h-7.4669c-0.74424 0-1.3543 0.60054-1.3543 1.3604v12.488h-2.733c-0.54903 0-1.0371 0.33094-1.2567 0.84559-0.20741 0.5148-0.097605 1.0908 0.29282 1.4829l7.7963 7.831c0.26842 0.2696 0.61004 0.4045 0.96386 0.4045 0.34162 0 0.69544-0.1343 0.96386-0.4045l7.7963-7.831c0.37822-0.3921 0.50023-0.9805 0.29282-1.4829z" fill="#fff" stroke-width=".12228"/>
  </g>
  <g transform="matrix(1.0129 0 0 1.0129 -.66216 25.702)" fill="#fff">
   <rect x="40.144" y="942.17" width="33.567" height="33.567" rx="5.9236" ry="5.9236" fill-opacity=".8"/>
   <path d="m65.982 956.47c-0.20741 0.51472-0.70764 0.8456-1.2567 0.8456h-2.6842v12.488c0 0.74757-0.59784 1.3603-1.3543 1.3603h-7.4669c-0.74424 0-1.3543-0.6005-1.3543-1.3603v-12.488h-2.733c-0.54903 0-1.0371-0.33088-1.2567-0.8456-0.20741-0.51472-0.0976-1.0907 0.29282-1.4829l7.7963-7.8311c0.26842-0.26962 0.61004-0.40442 0.96386-0.40442 0.34162 0 0.69544 0.13472 0.96386 0.40442l7.7963 7.8311c0.37822 0.39216 0.50023 0.98041 0.29282 1.4829z" stroke-width=".12228"/>
  </g>
  <g transform="translate(1.1494e-8 38)">
   <rect x="2" y="942.03" width="34" height="34" rx="6" ry="6" fill="#d6d6d6"/>
   <path d="m28.171 956.51c-0.21009 0.52136-0.71677 0.85651-1.2729 0.85651h-2.7188v12.649c0 0.75721-0.60555 1.3779-1.3718 1.3779h-7.5632c-0.75384 0-1.3718-0.60825-1.3718-1.3779v-12.649h-2.7682c-0.55612 0-1.0504-0.33515-1.2729-0.85651-0.21009-0.52136-0.098864-1.1048 0.29659-1.502l7.8968-7.9321c0.27188-0.2731 0.61791-0.40964 0.97629-0.40964 0.34603 0 0.70441 0.13646 0.97629 0.40964l7.8968 7.9321c0.3831 0.39722 0.50668 0.99306 0.2966 1.502z" fill="#fff" stroke-width=".12386"/>
  </g>
  <g transform="translate(6.7012e-8 -114)">
   <rect x="2" y="1018" width="34" height="34" rx="6" ry="6" fill="#d6d6d6"/>
   <g fill="#fff">
    <path d="m29.675 1038.7c-0.19904-0.084-0.41904-0.031-0.56571 0.1152l-1.7286 1.7181-3.8133-3.8238c-0.09428-0.094-0.23048-0.1572-0.36667-0.1572-0.13619 0-0.27238 0.053-0.36666 0.1572l-2.0952 2.0953c-0.20952 0.2095-0.20952 0.5343 0 0.7437l3.8133 3.8238-1.7286 1.7286c-0.14667 0.1466-0.19904 0.3771-0.11519 0.5657 0.08376 0.1991 0.27239 0.3248 0.48191 0.3248h6.2857c0.29332 0 0.5238-0.2305 0.5238-0.5239v-6.2856c-0.01002-0.2096-0.13619-0.3981-0.32476-0.4819zm-14.499-1.98c-0.20952-0.2095-0.53428-0.2095-0.74381 0l-3.8133 3.8133-1.7286-1.7285c-0.14667-0.1467-0.37715-0.1991-0.56572-0.1152-0.19904 0.084-0.32476 0.2725-0.32476 0.4819v6.2857c0 0.2934 0.23048 0.5238 0.52381 0.5238h6.2857c0.29333 0 0.52381-0.2304 0.52381-0.5238 0-0.1571-0.07337-0.3038-0.17809-0.3981l-1.6971-1.6867 3.8238-3.8238c0.20952-0.2094 0.20952-0.5342 0-0.7437zm14.289-12.729h-6.2857c-0.20952 0-0.39809 0.1257-0.48189 0.3248-0.08376 0.1991-0.03143 0.4191 0.11519 0.5657l1.7286 1.7286-3.8133 3.8238c-0.20953 0.2096-0.19905 0.5342 0 0.7438l2.0952 2.0952c0.09428 0.094 0.23048 0.1572 0.36667 0.1572 0.13619 0 0.27239-0.053 0.36667-0.1572l3.8238-3.8238 1.7286 1.7286c0.14667 0.1466 0.37713 0.1991 0.56571 0.1152 0.19905-0.084 0.32476-0.2723 0.32476-0.4819v-6.2961c-0.01002-0.2934-0.24095-0.5239-0.53428-0.5239zm-16.008 2.6191 1.7286-1.7286c0.14667-0.1466 0.19904-0.3771 0.11519-0.5657-0.08376-0.1991-0.27238-0.3248-0.4819-0.3248h-6.2962c-0.29333 0-0.52381 0.2305-0.52381 0.5239v6.2857c0 0.2095 0.12572 0.398 0.32476 0.4819 0.19905 0.084 0.41905 0.031 0.56572-0.1152l1.7286-1.718 3.8238 3.8237c0.1048 0.1052 0.24096 0.1572 0.36667 0.1572 0.12572 0 0.27239-0.053 0.36667-0.1572l2.0952-2.0951c0.20952-0.2096 0.20952-0.5343 0-0.7439z" stroke-width=".051354"/>
    <rect x="40" y="1018" width="34" height="34" rx="6" ry="6" fill-opacity=".8"/>
    <path d="m67.675 1038.7c-0.19904-0.084-0.41904-0.031-0.56571 0.1152l-1.7286 1.7181-3.8133-3.8238c-0.09428-0.094-0.23048-0.1572-0.36667-0.1572-0.13619 0-0.27238 0.053-0.36666 0.1572l-2.0952 2.0953c-0.20952 0.2095-0.20952 0.5343 0 0.7437l3.8133 3.8238-1.7286 1.7286c-0.14667 0.1466-0.19904 0.3771-0.11519 0.5657 0.08376 0.1991 0.27239 0.3248 0.48191 0.3248h6.2857c0.29332 0 0.5238-0.2305 0.5238-0.5239v-6.2856c-0.01002-0.2096-0.13619-0.3981-0.32476-0.4819zm-14.499-1.98c-0.20952-0.2095-0.53428-0.2095-0.74381 0l-3.8133 3.8133-1.7286-1.7285c-0.14667-0.1467-0.37714-0.1991-0.56572-0.1152-0.19904 0.084-0.32476 0.2725-0.32476 0.4819v6.2857c0 0.2934 0.23048 0.5238 0.52381 0.5238h6.2857c0.29333 0 0.52381-0.2304 0.52381-0.5238 0-0.1571-0.07337-0.3038-0.17809-0.3981l-1.6971-1.6867 3.8238-3.8238c0.20952-0.2094 0.20952-0.5342 0-0.7437zm14.289-12.729h-6.2857c-0.20952 0-0.39809 0.1257-0.48189 0.3248-0.08376 0.1991-0.03143 0.4191 0.11519 0.5657l1.7286 1.7286-3.8133 3.8238c-0.20953 0.2096-0.19905 0.5342 0 0.7438l2.0952 2.0952c0.09428 0.094 0.23048 0.1572 0.36667 0.1572 0.13619 0 0.27239-0.053 0.36667-0.1572l3.8238-3.8238 1.7286 1.7286c0.14667 0.1466 0.37713 0.1991 0.56571 0.1152 0.19905-0.084 0.32476-0.2723 0.32476-0.4819v-6.2961c-0.01002-0.2934-0.24095-0.5239-0.53428-0.5239zm-16.008 2.6191 1.7286-1.7286c0.14667-0.1466 0.19904-0.3771 0.11519-0.5657-0.08376-0.1991-0.27238-0.3248-0.4819-0.3248h-6.2962c-0.29333 0-0.52381 0.2305-0.52381 0.5239v6.2857c0 0.2095 0.12572 0.398 0.32476 0.4819 0.19905 0.084 0.41905 0.031 0.56572-0.1152l1.7286-1.718 3.8238 3.8237c0.1048 0.1052 0.24096 0.1572 0.36667 0.1572 0.12572 0 0.27239-0.053 0.36667-0.1572l2.0952-2.0951c0.20952-0.2096 0.20952-0.5343 0-0.7439z" stroke-width=".051354"/>
   </g>
  </g>
  <g transform="matrix(1.0129 0 0 1.0129 -.66217 26.338)" fill="#fff">
   <rect x="40.144" y="904.03" width="33.567" height="33.567" rx="5.9236" ry="5.9236" fill-opacity=".8"/>
   <g stroke-width=".057007">
    <path d="m48.586 920.81c0-2.6788 1.2697-5.0665 3.2385-6.5936-3.3326 1.2081-6.1144 3.5656-7.8662 6.5936 1.7518 3.028 4.5335 5.3855 7.8662 6.5938-1.9688-1.5273-3.2385-3.915-3.2385-6.5938z"/>
    <path d="m56.928 914.18c-3.6565 0-6.6312 2.9748-6.6312 6.6312s2.9747 6.6312 6.6312 6.6312c3.6565 0 6.6312-2.9746 6.6312-6.6312 0-3.6565-2.9747-6.6312-6.6312-6.6312zm0 8.6264c-1.1019 0-1.9952-0.89334-1.9952-1.9952s0.8933-1.9952 1.9952-1.9952 1.9952 0.89334 1.9952 1.9952-0.8933 1.9952-1.9952 1.9952z"/>
    <path d="m62.031 914.22c1.9688 1.5272 3.2385 3.9148 3.2385 6.5936s-1.2697 5.0665-3.2385 6.5938c3.3326-1.2083 6.1144-3.5657 7.8662-6.5938-1.7518-3.028-4.5335-5.3855-7.8662-6.5936z"/>
   </g>
  </g>
  <g transform="matrix(1.0129 0 0 1.0129 -.025798 26.339)">
   <rect x="2" y="904.03" width="33.567" height="33.567" rx="5.9236" ry="5.9236" fill="#d6d6d6"/>
   <g fill="#fff" stroke-width=".057007">
    <path d="m10.442 920.81c0-2.6788 1.2697-5.0665 3.2385-6.5936-3.3326 1.2081-6.1144 3.5656-7.8662 6.5936 1.7518 3.028 4.5335 5.3855 7.8662 6.5938-1.9688-1.5273-3.2385-3.915-3.2385-6.5938z"/>
    <path d="m18.784 914.18c-3.6565 0-6.6312 2.9748-6.6312 6.6312 0 3.6564 2.9747 6.6312 6.6312 6.6312 3.6565 0 6.6312-2.9746 6.6312-6.6312 0-3.6565-2.9747-6.6312-6.6312-6.6312zm0 8.6264c-1.1019 0-1.9952-0.89334-1.9952-1.9953 0-1.1019 0.8933-1.9952 1.9952-1.9952s1.9952 0.89334 1.9952 1.9952c0 1.1019-0.8933 1.9953-1.9952 1.9953z"/>
    <path d="m23.886 914.22c1.9688 1.5272 3.2385 3.9148 3.2385 6.5936s-1.2697 5.0665-3.2385 6.5938c3.3326-1.2083 6.1144-3.5657 7.8662-6.5938-1.7518-3.028-4.5335-5.3855-7.8662-6.5936z"/>
   </g>
  </g>
 </g>
</svg>
